<mxfile host="app.diagrams.net" modified="2023-04-18T07:30:22.385Z" agent="Mozilla/5.0 (Windows NT 10.0; Win64; x64) AppleWebKit/537.36 (KHTML, like Gecko) Chrome/112.0.0.0 Safari/537.36" version="21.1.8" etag="B3bnbQhwOQ9Fy7PABfCf" type="github">
  <diagram name="Sayfa -1" id="QYIUFAn8kpZLyevtzmNE">
    <mxGraphModel>
      <root>
        <mxCell id="0" />
        <mxCell id="1" parent="0" />
      </root>
    </mxGraphModel>
  </diagram>
</mxfile>
